********The.Last.Song.2010.x264.AC3(5.1).Multisub.mkv-Zen_Bud********
Format                           : Matroska
File size                        : 1.38 GiB
Duration                         : 1h 43mn
Overall bit rate                 : 1 918 Kbps
Writing application              : HandBrake 0.9.4

Video

Format                           : AVC
Duration                         : 1h 43mn
Bit rate                         : 1 505 Kbps
Width                            : 720 pixels
Height                           : 436 pixels
Display aspect ratio             : 2.35:1
Stream size                      : 1.08 GiB (78%)
Writing library                  : x264 core 79

Audio

Format                           : AC-3
Duration                         : 1h 43mn
Bit rate                         : 384 Kbps
Channel(s)                       : 6 channels
Channel positions                : Front: L C R, Side: L R, LFE
Sampling rate                    : 48.0 KHz
Bit depth                        : 16 bits
Stream size                      : 283 MiB (20%)
Language                         : English

Text #1
Language                         : English

Text #2
Language                         : Swedish

Text #3
Language                         : Norwegian

Text #4
Language                         : Danish

Text #5
Language                         : Finnish

Text #6
Language                         : Icelandic

